# xmcd CD database file
#
# Track frame offsets:
#	183
#	26845
#	62233
#	95248
#	110280
#	127708
#	145268
#	168020
#
# Disc length: 2443 seconds
#
# Revision: 0
# Processed by: cddbd v1.5.2PL0 Copyright (c) Steve Scherf et al.
# Submitted via: CDex 1.70beta2
#
DISCID=67098908
DTITLE=Joe Diorio - Earth Moon Earth
DYEAR=1987
DGENRE=Jazz
TTITLE0=Mr P.C.
TTITLE1=A Child is Born
TTITLE2=I Thought About You
TTITLE3=Reflections of Wes
TTITLE4=Corcovado
TTITLE5=Lush Life
TTITLE6=Misty
TTITLE7=The Jesters
EXTD=YEAR: 1987
EXTT0=
EXTT1=
EXTT2=
EXTT3=
EXTT4=
EXTT5=
EXTT6=
EXTT7=
PLAYORDER=
